<?xml version="1.0" standalone="no"?>
<!DOCTYPE svg PUBLIC "-//W3C//DTD SVG 20010904//EN"
 "http://www.w3.org/TR/2001/REC-SVG-20010904/DTD/svg10.dtd">
<svg version="1.0" xmlns="http://www.w3.org/2000/svg"
 width="1025.000000pt" height="1025.000000pt" viewBox="0 0 1025.000000 1025.000000"
 preserveAspectRatio="xMidYMid meet">
<metadata>
Created by potrace 1.14, written by Peter Selinger 2001-2017
</metadata>
<g transform="translate(0.000000,1025.000000) scale(0.100000,-0.100000)"
fill="#000000" stroke="none">
<path d="M6635 7840 c-3 -6 -52 -10 -111 -10 -80 0 -109 -4 -120 -15 -10 -10
-35 -15 -70 -15 -30 0 -54 -4 -54 -10 0 -5 -21 -10 -46 -10 -27 0 -51 -6 -60
-15 -13 -13 -58 -21 -87 -16 -5 1 -6 -3 -2 -9 4 -6 -5 -10 -22 -10 -16 0 -38
-7 -49 -15 -10 -8 -29 -15 -41 -15 -13 0 -23 -4 -23 -10 0 -5 -11 -10 -25 -10
-14 0 -25 -5 -25 -11 0 -5 -4 -7 -10 -4 -5 3 -10 1 -10 -4 0 -6 -12 -11 -26
-11 -14 0 -23 -4 -19 -10 3 -5 -3 -10 -14 -10 -11 0 -26 -7 -35 -15 -8 -8 -24
-15 -35 -15 -12 0 -21 -4 -21 -10 0 -5 -7 -10 -15 -10 -9 0 -18 -7 -21 -15 -4
-8 -17 -15 -31 -15 -13 0 -21 -4 -18 -10 4 -6 -5 -10 -19 -10 -16 0 -26 -6
-26 -15 0 -8 -7 -15 -15 -15 -8 0 -15 -4 -15 -10 0 -5 -9 -10 -20 -10 -11 0
-23 -7 -26 -15 -4 -8 -10 -15 -16 -15 -5 0 -16 -6 -23 -12 -33 -30 -45 -38
-55 -38 -5 0 -10 -4 -10 -10 0 -5 -7 -10 -15 -10 -8 0 -15 -7 -15 -15 0 -8 -5
-15 -11 -15 -14 0 -39 -25 -39 -39 0 -6 -11 -11 -25 -11 -14 0 -25 -5 -25 -11
0 -13 -25 -39 -38 -39 -5 0 -15 -11 -22 -25 -7 -14 -19 -25 -25 -25 -6 0 -18
-11 -25 -25 -7 -14 -19 -25 -27 -25 -7 0 -13 -7 -13 -15 0 -8 -5 -15 -11 -15
-5 0 -8 -4 -5 -8 3 -5 -4 -15 -15 -22 -10 -8 -19 -20 -19 -27 0 -7 -5 -13 -11
-13 -14 0 -39 -25 -39 -39 0 -6 -6 -11 -13 -11 -7 0 -13 -9 -14 -20 -2 -22
-25 -50 -42 -50 -6 0 -11 -9 -11 -20 0 -12 -11 -31 -25 -44 -14 -13 -25 -33
-25 -45 0 -12 -6 -21 -15 -21 -9 0 -15 -10 -15 -26 0 -14 -4 -23 -10 -19 -5 3
-10 -1 -10 -9 0 -8 -8 -20 -17 -25 -10 -6 -14 -11 -10 -11 5 0 -1 -15 -12 -33
-11 -19 -18 -37 -14 -40 3 -4 1 -7 -5 -7 -6 0 -13 -13 -17 -30 -4 -16 -11 -30
-16 -30 -5 0 -9 -16 -9 -35 0 -24 -5 -35 -15 -35 -9 0 -15 -9 -15 -25 0 -14
-4 -25 -10 -25 -5 0 -13 -18 -16 -40 -4 -22 -10 -40 -15 -40 -5 0 -9 -15 -9
-34 0 -19 -4 -36 -10 -38 -5 -1 -13 -23 -16 -48 -3 -25 -10 -46 -15 -48 -5 -2
-9 -30 -9 -62 0 -37 -4 -60 -12 -62 -8 -3 -14 -34 -16 -89 -2 -46 -8 -88 -13
-93 -12 -13 -12 -393 0 -398 5 -1 11 -45 13 -97 3 -61 9 -96 16 -99 7 -2 12
-25 12 -58 0 -30 5 -54 10 -54 6 0 10 -15 10 -33 0 -18 7 -42 15 -53 8 -10 15
-34 15 -51 0 -18 4 -33 9 -33 5 0 11 -18 15 -40 4 -23 11 -38 16 -35 6 4 10
-9 10 -30 0 -22 6 -38 15 -41 8 -4 15 -17 15 -30 0 -13 5 -24 10 -24 6 0 10
-11 10 -25 0 -14 4 -25 10 -25 5 0 12 -11 16 -25 3 -14 10 -25 15 -25 5 0 9
-11 9 -25 0 -14 6 -25 13 -25 7 0 13 -10 14 -22 1 -11 6 -24 11 -27 5 -3 12
-16 16 -28 4 -13 12 -23 17 -23 5 0 9 -7 9 -15 0 -8 5 -15 10 -15 6 0 10 -7
10 -15 0 -9 7 -18 15 -21 8 -4 15 -12 15 -20 0 -8 4 -14 10 -14 5 0 12 -11 16
-25 3 -14 9 -25 13 -25 4 0 14 -11 21 -25 7 -14 19 -25 27 -25 7 0 13 -7 13
-15 0 -8 11 -25 25 -39 14 -14 25 -30 25 -36 0 -5 7 -10 15 -10 8 0 15 -5 15
-11 0 -14 25 -39 39 -39 6 0 11 -4 11 -10 0 -6 18 -28 40 -50 22 -22 44 -40
50 -40 6 0 10 -7 10 -15 0 -8 5 -15 11 -15 6 0 25 -16 43 -35 19 -19 41 -35
50 -35 10 0 15 -4 11 -9 -3 -5 4 -12 15 -16 11 -3 20 -11 20 -16 0 -5 4 -9 9
-9 6 0 22 -11 37 -25 15 -14 36 -25 46 -25 11 0 17 -4 13 -9 -3 -6 12 -18 32
-27 21 -10 42 -24 46 -31 4 -7 17 -13 27 -13 11 0 20 -3 20 -8 0 -7 30 -25 63
-38 9 -3 17 -10 17 -15 0 -5 9 -9 21 -9 11 0 27 -7 35 -15 9 -8 26 -15 40 -15
13 0 24 -4 24 -10 0 -5 11 -10 24 -10 13 0 26 -7 30 -15 3 -8 17 -15 31 -15
14 0 25 -4 25 -10 0 -5 15 -10 34 -10 21 0 36 -6 40 -15 3 -9 19 -15 41 -15
19 0 35 -4 35 -10 0 -5 16 -10 36 -10 19 0 42 -7 50 -15 10 -9 34 -15 65 -15
27 0 49 -4 49 -10 0 -6 33 -10 79 -10 62 0 80 -3 85 -15 3 -9 11 -15 18 -14 7
1 61 1 121 0 l107 -1 0 -530 0 -530 60 0 60 0 0 530 0 530 78 2 c42 0 85 0 95
0 10 -1 20 5 23 13 5 11 24 15 80 15 43 0 74 4 74 10 0 6 22 10 49 10 31 0 55
6 65 15 8 8 32 15 55 15 23 0 41 5 41 10 0 6 14 10 30 10 18 0 33 6 36 15 4
10 20 15 45 15 21 0 39 5 39 10 0 6 11 10 25 10 16 0 25 6 25 15 0 10 10 15
29 15 17 0 33 5 36 10 3 6 15 10 25 10 10 0 25 7 34 15 8 8 22 15 30 15 9 0
16 4 16 9 0 5 11 12 25 15 14 4 25 11 25 16 0 6 9 10 20 10 11 0 20 5 20 10 0
6 9 10 19 10 10 0 21 7 25 15 3 8 15 15 26 15 12 0 18 4 15 10 -3 6 3 10 14
10 12 0 21 7 21 15 0 8 8 15 18 15 9 0 29 11 44 25 15 14 30 25 33 25 4 0 13
6 20 13 26 22 40 33 68 51 15 10 24 22 21 27 -3 5 0 9 6 9 7 0 34 23 61 50 27
28 51 50 55 50 8 0 34 27 34 35 0 10 28 35 39 35 6 0 11 5 11 11 0 7 16 26 35
45 19 18 35 37 35 43 0 6 17 27 39 48 21 22 41 49 45 61 4 12 12 22 17 22 5 0
9 7 9 15 0 8 5 15 10 15 6 0 10 7 10 15 0 9 11 26 24 38 13 12 26 32 30 45 4
12 12 22 17 22 5 0 9 11 9 25 0 14 4 25 10 25 5 0 12 11 16 25 3 14 10 25 15
25 5 0 9 11 9 24 0 13 7 26 15 30 8 3 15 15 15 26 0 11 5 20 10 20 6 0 10 11
10 25 0 14 4 25 10 25 5 0 12 16 16 35 3 19 10 38 15 41 5 3 9 21 9 40 0 24 5
34 15 34 11 0 15 11 15 40 0 22 4 40 9 40 5 0 11 23 15 50 4 28 11 50 16 50 6
0 10 21 10 46 0 25 4 53 9 62 5 9 11 55 15 101 3 47 10 87 15 90 13 8 9 390
-4 399 -5 4 -11 43 -13 87 -2 44 -8 82 -13 83 -5 2 -9 28 -9 57 0 38 -5 59
-17 71 -10 10 -17 19 -15 21 7 10 0 73 -8 68 -6 -4 -10 8 -10 29 0 19 -7 41
-15 50 -8 8 -15 31 -15 50 0 20 -4 36 -9 36 -5 0 -12 11 -15 25 -4 14 -11 25
-16 25 -6 0 -10 8 -10 17 0 25 -31 103 -41 103 -5 0 -9 9 -9 20 0 19 -44 98
-60 110 -4 3 -10 15 -14 28 -4 12 -12 22 -17 22 -5 0 -9 11 -9 25 0 16 -6 25
-15 25 -8 0 -15 7 -15 15 0 8 -4 15 -10 15 -5 0 -10 8 -10 19 0 10 -11 26 -24
37 -14 10 -27 28 -31 41 -3 13 -10 23 -15 23 -6 0 -10 5 -10 11 0 14 -25 39
-39 39 -6 0 -11 5 -11 11 0 14 -25 39 -39 39 -10 0 -16 21 -12 43 0 4 -3 7 -9
7 -5 0 -44 34 -85 75 -42 41 -82 75 -90 75 -8 0 -15 7 -15 15 0 8 -5 15 -11
15 -7 0 -26 16 -45 35 -18 19 -37 35 -43 35 -6 0 -11 6 -11 13 0 8 -4 7 -10
-3 -8 -13 -10 -12 -10 3 0 9 -5 17 -11 17 -7 0 -22 11 -35 25 -13 14 -30 25
-39 25 -8 0 -15 5 -15 10 0 6 -6 10 -14 10 -8 0 -16 7 -20 15 -3 8 -15 15 -26
15 -11 0 -20 5 -20 10 0 6 -11 10 -25 10 -16 0 -25 6 -25 15 0 8 -7 15 -15 15
-8 0 -15 5 -15 10 0 6 -11 10 -25 10 -14 0 -25 4 -25 10 0 5 -11 12 -25 16
-14 3 -25 10 -25 15 0 5 -3 8 -7 8 -32 -5 -63 3 -63 16 0 10 -10 15 -30 15
-16 0 -30 5 -30 10 0 6 -9 10 -21 10 -11 0 -27 7 -35 15 -9 8 -29 15 -45 15
-16 0 -29 5 -29 10 0 6 -17 10 -39 10 -22 0 -44 6 -51 15 -8 10 -30 15 -62 15
-30 0 -47 4 -43 10 4 6 -14 10 -47 10 -32 0 -62 6 -74 15 -14 10 -48 14 -126
15 -65 0 -108 4 -108 10 0 6 -51 10 -134 10 -79 0 -137 -4 -141 -10z m395
-404 c0 -8 7 -17 16 -20 27 -11 -10 -36 -53 -36 -71 0 -111 -11 -108 -29 4
-29 161 -44 171 -16 4 9 19 15 40 15 30 0 34 3 34 25 0 16 6 25 15 25 8 0 15
-7 15 -15 0 -8 7 -15 15 -15 8 0 15 -4 15 -10 0 -5 11 -10 25 -10 14 0 25 -4
25 -10 0 -5 9 -10 20 -10 11 0 21 -6 22 -12 0 -7 2 -17 2 -23 1 -5 5 -16 10
-24 5 -8 4 -16 -5 -21 -9 -6 -1 -20 34 -54 25 -25 49 -46 52 -46 4 0 13 -7 21
-15 9 -8 26 -15 40 -15 13 0 24 -4 24 -10 0 -5 11 -10 24 -10 13 0 26 -7 30
-15 3 -8 15 -15 26 -15 11 0 20 -4 20 -10 0 -5 7 -10 15 -10 8 0 15 -7 15 -15
0 -8 7 -15 15 -15 8 0 15 -4 15 -10 0 -5 9 -10 19 -10 10 0 21 -7 25 -15 3 -8
14 -15 24 -15 10 0 23 -5 29 -11 6 -6 42 -11 82 -10 57 1 71 -2 71 -14 0 -8 5
-15 11 -15 11 0 39 -25 39 -35 0 -10 28 -35 39 -35 6 0 11 -4 11 -9 0 -15
-122 -18 -127 -3 -3 6 -20 12 -39 12 -30 0 -34 -3 -34 -25 0 -14 5 -25 10 -25
6 0 10 -6 10 -12 0 -13 44 -38 67 -38 8 0 13 -13 13 -32 1 -39 16 -62 48 -72
12 -4 22 -12 22 -17 0 -5 9 -9 20 -9 17 0 20 7 20 42 0 41 0 42 16 20 8 -12
24 -22 34 -22 10 0 25 -7 34 -15 17 -17 36 -20 36 -5 0 6 11 10 25 10 14 0 25
-5 25 -11 0 -5 5 -7 10 -4 11 7 14 -18 11 -92 -4 -66 5 -93 30 -93 10 0 19 -7
19 -15 0 -8 5 -15 11 -15 6 0 25 -15 43 -34 22 -24 43 -35 66 -38 27 -2 36 -8
38 -25 2 -13 8 -23 13 -23 5 0 9 -18 9 -40 0 -22 4 -40 9 -40 5 0 13 -10 17
-22 4 -13 10 -25 13 -28 7 -5 30 -120 38 -192 3 -21 9 -38 14 -38 5 0 9 -19 9
-43 0 -24 7 -52 15 -63 8 -10 15 -29 15 -41 0 -13 3 -23 8 -23 17 0 42 -65 42
-111 0 -48 23 -89 51 -89 5 0 8 -4 4 -9 -3 -5 7 -11 22 -13 l27 -3 -3 -95 c-1
-52 -7 -98 -13 -101 -5 -3 -12 -34 -15 -68 -3 -33 -10 -61 -14 -61 -5 0 -9
-16 -9 -35 0 -19 -4 -35 -10 -35 -5 0 -12 -17 -15 -37 -3 -21 -10 -46 -16 -55
-5 -10 -9 -25 -9 -34 0 -8 -7 -22 -15 -30 -8 -9 -15 -24 -15 -34 0 -10 -4 -22
-10 -25 -5 -3 -10 -14 -10 -24 0 -10 -7 -24 -15 -31 -8 -7 -15 -21 -15 -30 0
-10 -3 -20 -7 -22 -5 -1 -18 -23 -30 -48 -12 -25 -31 -55 -42 -67 -12 -12 -21
-31 -21 -43 0 -11 -5 -20 -10 -20 -6 0 -9 3 -9 8 5 31 -3 62 -16 62 -8 0 -15
-4 -15 -10 0 -5 -9 -10 -19 -10 -11 0 -21 -3 -23 -7 -1 -5 -21 -17 -43 -28
-22 -11 -43 -24 -46 -29 -4 -4 -33 -9 -65 -11 -32 -1 -60 -7 -62 -14 -7 -21
-33 -11 -66 24 -18 19 -42 35 -52 36 -41 4 -75 -1 -69 -11 4 -6 -8 -10 -29
-10 -20 0 -36 -4 -36 -10 0 -6 -9 -6 -26 0 -14 6 -36 10 -50 10 -13 0 -24 5
-24 10 0 6 -9 10 -19 10 -12 0 -21 9 -25 25 -8 30 -22 33 -31 6 -4 -13 -18
-20 -52 -24 -26 -3 -49 -10 -51 -16 -5 -14 -72 -15 -72 -1 0 6 -32 10 -76 10
-47 0 -73 -4 -69 -10 3 -5 -3 -10 -14 -10 -12 0 -21 -4 -21 -9 0 -5 -11 -12
-25 -15 -14 -4 -25 -11 -25 -16 0 -6 -5 -10 -10 -10 -11 0 -22 -8 -68 -50 -22
-20 -37 -25 -85 -26 -40 0 -61 -5 -68 -15 -6 -10 -11 -11 -16 -3 -5 6 -18 14
-30 18 -21 7 -23 14 -23 74 0 77 -17 102 -70 102 l-30 0 0 209 c0 191 2 210
18 213 36 8 52 -3 52 -38 0 -19 5 -34 10 -34 6 0 10 -7 10 -15 0 -8 7 -15 16
-15 8 0 12 -5 9 -10 -9 -15 37 -30 53 -18 17 14 15 80 -3 104 -8 10 -15 27
-15 37 0 9 -4 17 -10 17 -5 0 -10 11 -10 25 0 14 5 25 10 25 6 0 10 9 10 20 0
11 4 20 9 20 5 0 23 14 41 30 18 17 35 30 39 30 17 0 33 49 36 113 2 40 9 73
15 75 5 2 10 17 10 33 0 16 5 29 11 29 7 0 19 8 28 18 9 11 26 24 39 31 21 11
22 14 8 24 -8 7 -14 21 -11 32 2 11 4 26 4 33 1 6 12 12 26 12 16 0 25 6 25
15 0 8 5 15 10 15 6 0 10 -7 10 -15 0 -8 9 -15 20 -15 26 0 60 30 60 52 0 10
7 18 15 18 8 0 15 7 15 15 0 8 5 15 10 15 6 0 10 10 10 23 0 25 -45 53 -53 33
-3 -8 -19 -11 -42 -8 -27 3 -35 8 -31 19 3 8 6 19 6 24 0 5 9 9 20 9 24 0 27
15 4 24 -21 8 -8 26 20 26 18 0 26 -9 36 -40 14 -43 24 -48 54 -25 11 9 41 15
68 15 42 0 48 3 48 21 0 11 -8 34 -17 50 -13 22 -25 29 -48 29 -25 0 -34 7
-49 35 -11 19 -22 35 -26 35 -5 0 -11 11 -14 25 -6 24 -26 36 -26 15 0 -21
-20 -9 -26 15 -6 23 -11 25 -65 25 l-59 0 0 36 c0 27 -5 37 -20 41 -11 3 -18
8 -16 12 3 4 -5 8 -16 8 -12 1 -24 7 -28 14 -13 20 -30 0 -30 -34 l0 -32 -25
29 c-14 16 -25 33 -25 37 0 5 -11 11 -25 15 -42 10 -28 24 25 24 47 0 50 2 50
25 0 14 -4 25 -10 25 -5 0 -9 3 -9 8 1 4 1 37 0 75 l-1 67 -50 0 c-47 0 -50 2
-50 25 0 20 -5 25 -25 25 -16 0 -25 6 -25 15 0 8 -7 15 -15 15 -8 0 -15 5 -15
10 0 6 -9 10 -20 10 -11 0 -28 8 -39 19 -10 10 -26 23 -34 27 -13 7 -14 24
-10 92 6 90 20 109 25 35 l3 -48 73 -3 c39 -2 72 -7 72 -12 0 -6 4 -10 8 -10
16 0 102 -88 102 -104 0 -15 6 -17 50 -20 10 -1 16 -14 18 -38 2 -25 8 -38 18
-38 8 0 14 -5 14 -11 0 -17 27 -39 49 -39 12 0 21 -6 21 -15 0 -8 6 -15 14
-15 8 0 16 -4 18 -9 2 -5 37 -11 78 -13 l75 -3 3 28 c2 20 -1 27 -13 27 -9 0
-13 5 -10 10 3 6 -1 13 -9 16 -10 4 -16 19 -16 40 0 24 -5 34 -15 34 -12 0
-15 20 -15 119 0 127 -4 151 -26 151 -7 0 -17 7 -21 15 -5 8 -24 16 -43 18
-28 2 -35 7 -41 31 -10 36 -24 46 -66 46 -18 0 -33 5 -33 10 0 6 -11 10 -25
10 -15 0 -25 6 -25 14 0 7 -16 21 -35 30 -19 9 -35 21 -35 26 0 15 -53 11 -74
-5 -11 -8 -28 -15 -38 -15 -30 0 -58 -31 -47 -52 11 -20 7 -21 -67 -18 -26 1
-47 -4 -57 -14 -9 -9 -20 -16 -26 -16 -6 0 -11 -4 -11 -10 0 -5 -7 -10 -15
-10 -8 0 -15 -7 -15 -15 0 -8 -7 -15 -15 -15 -9 0 -15 -9 -15 -25 0 -23 -4
-25 -42 -26 -24 -1 -53 0 -65 1 -20 1 -23 -4 -24 -37 l-1 -38 -8 33 c-9 39
-18 51 -28 35 -4 -6 -18 -13 -32 -15 -19 -2 -24 -8 -23 -26 2 -18 -2 -22 -22
-22 -14 0 -28 -7 -31 -15 -4 -8 -14 -15 -24 -15 -10 0 -21 -7 -24 -16 -9 -25
-7 -64 4 -64 6 0 10 -4 10 -10 0 -5 -13 -10 -29 -10 -22 0 -30 6 -35 25 -5 20
-13 25 -39 25 -18 0 -38 -5 -45 -12 -9 -9 -12 -7 -12 9 0 11 -7 26 -15 33 -8
7 -15 21 -15 31 0 11 -4 19 -10 19 -5 0 -12 11 -16 25 -3 14 -10 25 -15 25 -5
0 -9 16 -9 35 0 32 -2 35 -31 35 -16 0 -28 4 -25 9 3 5 -15 12 -41 16 -41 6
-48 4 -68 -19 -27 -31 -35 -33 -35 -6 0 11 5 20 10 20 6 0 10 7 10 15 0 8 4
15 10 15 5 0 12 11 16 25 3 14 10 25 14 25 4 0 11 11 14 25 4 14 11 25 16 25
6 0 10 10 11 23 0 21 1 21 9 2 5 -11 11 -29 15 -40 5 -16 8 -17 15 -5 15 23
12 50 -5 50 -13 0 -15 11 -13 60 2 52 5 60 23 60 21 1 55 22 55 34 0 15 29 36
50 36 11 0 23 7 26 15 4 9 19 15 39 15 37 0 45 13 40 68 -3 30 -1 32 31 32 19
0 34 -4 34 -10 0 -5 7 -10 15 -10 8 0 15 5 15 10 0 6 16 10 35 10 19 0 35 5
35 10 0 6 7 10 15 10 7 0 18 7 23 16 12 22 32 9 25 -16 -4 -16 0 -20 17 -20
28 0 100 -30 100 -42 0 -4 14 -8 30 -8 20 0 30 -5 30 -15 0 -8 5 -15 10 -15
16 0 23 27 16 55 -5 18 -13 25 -31 25 -14 0 -25 5 -25 10 0 6 14 10 30 10 17
0 30 5 30 11 0 5 5 7 10 4 6 -3 10 -1 10 4 0 6 18 11 40 11 22 0 40 5 40 10 0
14 106 12 130 -2 15 -10 23 -10 28 -2 4 6 17 14 30 18 12 4 20 12 17 17 -4 5
1 9 9 9 9 0 16 -6 16 -14z m-1180 -111 c0 -14 -4 -25 -8 -25 -4 0 -16 -15 -27
-32 -10 -18 -25 -37 -32 -43 -14 -11 -7 -55 8 -55 5 0 9 -4 9 -10 0 -16 -67
-12 -74 5 -4 11 -20 15 -55 15 -31 0 -55 -6 -65 -15 -16 -17 -56 -20 -56 -5 0
6 7 10 15 10 8 0 15 7 15 15 0 8 9 15 20 15 11 0 20 5 20 10 0 6 7 10 15 10 8
0 15 7 15 15 0 8 7 15 15 15 8 0 15 5 15 10 0 6 9 10 20 10 11 0 23 7 26 15 4
8 15 15 25 15 10 0 19 5 19 10 0 6 9 10 20 10 11 0 20 7 20 15 0 8 9 15 20 15
15 0 20 -7 20 -25z m-330 -215 c0 -5 5 -10 11 -10 6 0 17 -7 25 -15 10 -9 34
-15 65 -15 35 0 51 4 55 15 4 8 10 15 15 15 12 0 11 -67 -1 -75 -17 -10 -11
-25 9 -25 13 0 26 -14 38 -40 17 -39 20 -41 60 -38 28 2 44 -1 48 -9 2 -7 -2
-13 -10 -13 -9 0 -15 -10 -15 -25 0 -14 -4 -25 -10 -25 -5 0 -10 -7 -10 -16 0
-8 -4 -12 -10 -9 -5 3 -10 -1 -10 -9 0 -10 9 -16 25 -16 20 0 25 5 25 25 0 18
5 25 20 25 11 0 20 -4 20 -10 0 -5 -4 -10 -10 -10 -5 0 -10 -18 -10 -40 l0
-40 -40 0 c-24 0 -40 5 -40 12 0 9 -3 9 -12 0 -7 -7 -22 -12 -34 -12 -23 0
-23 -1 -26 -92 -1 -13 2 -31 6 -40 7 -16 1 -18 -54 -18 -38 0 -59 4 -55 10 4
6 -5 10 -19 10 -36 0 -36 -37 -1 -46 14 -3 25 -10 25 -15 0 -5 23 -9 50 -9 47
0 50 -2 50 -25 0 -20 5 -25 25 -25 20 0 25 5 25 25 0 16 6 25 15 25 8 0 15 -7
15 -15 0 -10 10 -15 31 -15 35 0 59 -20 59 -49 0 -12 6 -21 15 -21 22 0 22
-214 0 -237 -21 -20 -16 -84 5 -90 14 -4 16 -16 12 -79 -3 -46 -1 -74 6 -74
15 0 22 -41 8 -46 -7 -3 -13 -24 -15 -47 -1 -24 -8 -45 -17 -50 -7 -4 -14 -16
-14 -27 0 -10 -5 -20 -10 -22 -6 -2 -12 -13 -13 -25 0 -13 -7 -25 -14 -27 -21
-9 -18 -210 5 -249 21 -39 37 -57 51 -57 6 0 11 -16 11 -36 0 -19 5 -45 11
-56 6 -12 13 -37 15 -56 2 -18 8 -39 13 -46 5 -6 11 -29 13 -51 2 -30 9 -42
26 -50 17 -8 22 -18 22 -50 0 -29 7 -46 25 -64 14 -13 25 -27 25 -32 0 -5 9
-9 20 -9 15 0 20 7 20 25 0 14 -7 28 -15 31 -17 7 -22 94 -5 94 6 0 10 -12 10
-26 0 -14 4 -23 10 -19 6 3 10 -3 10 -14 0 -12 7 -21 15 -21 8 0 15 -9 15 -20
0 -11 5 -20 10 -20 6 0 10 -7 10 -15 0 -8 4 -15 9 -15 14 0 30 -56 24 -80 -8
-31 25 -84 66 -106 20 -10 42 -25 49 -32 8 -7 18 -10 23 -6 5 3 12 -2 15 -10
3 -9 17 -16 31 -16 13 0 22 -4 19 -9 -4 -5 7 -12 24 -16 16 -4 30 -11 30 -16
0 -5 32 -9 71 -9 64 0 74 -3 95 -25 15 -16 34 -25 54 -25 16 0 30 -4 30 -9 0
-5 10 -11 23 -13 l22 -3 3 -397 2 -398 -109 0 c-60 0 -111 4 -113 9 -1 5 -34
12 -73 16 -38 4 -74 11 -79 16 -6 5 -32 9 -59 9 -27 0 -46 4 -42 9 3 6 -15 13
-40 16 -25 4 -45 11 -45 16 0 5 -16 9 -35 9 -19 0 -35 4 -35 10 0 5 -16 12
-35 16 -19 3 -38 10 -41 15 -3 5 -16 9 -30 9 -13 0 -24 4 -24 10 0 5 -11 12
-25 16 -14 3 -25 10 -25 15 0 5 -11 9 -25 9 -14 0 -25 4 -25 9 0 5 -11 12 -25
15 -14 4 -25 11 -25 16 0 6 -9 10 -20 10 -12 0 -31 11 -44 25 -13 14 -31 25
-40 25 -9 0 -16 5 -16 10 0 6 -6 10 -14 10 -8 0 -16 7 -20 15 -3 8 -12 15 -21
15 -9 0 -26 11 -39 25 -13 14 -26 25 -30 25 -4 0 -14 6 -21 13 -34 30 -45 37
-56 37 -7 0 -10 3 -7 6 6 5 -26 44 -35 44 -6 0 -167 160 -167 166 0 5 -11 19
-37 49 -7 7 -13 18 -13 24 0 6 -7 11 -15 11 -8 0 -15 7 -15 15 0 8 -3 15 -8
15 -4 0 -16 16 -26 35 -11 19 -23 35 -28 35 -4 0 -8 9 -8 20 0 10 -6 23 -13
27 -7 4 -21 25 -32 46 -11 20 -23 37 -27 37 -5 0 -8 9 -8 19 0 11 -4 21 -10
23 -5 2 -11 14 -13 27 -2 14 -9 27 -15 29 -7 2 -12 15 -12 28 0 15 -6 24 -15
24 -10 0 -15 11 -15 35 0 19 -4 35 -10 35 -5 0 -10 8 -10 18 0 19 -32 107 -43
118 -4 4 -7 24 -7 45 0 20 -5 39 -11 41 -6 2 -14 27 -17 56 -2 29 -8 52 -12
52 -4 0 -10 41 -12 92 -3 58 -9 93 -16 96 -17 5 -16 331 1 353 7 10 14 52 16
95 1 43 6 81 10 84 4 3 11 30 14 60 4 30 11 56 17 58 5 2 10 21 10 43 0 21 5
39 10 39 6 0 10 10 10 23 0 13 7 32 15 43 8 10 15 31 15 46 0 15 5 30 10 33 6
3 10 17 10 31 0 15 6 24 15 24 9 0 15 9 15 25 0 14 4 25 10 25 5 0 12 11 16
25 3 14 10 25 15 25 5 0 9 11 9 25 0 14 4 25 10 25 5 0 12 11 16 25 3 14 10
25 15 25 5 0 9 11 9 25 0 14 6 25 13 25 8 0 22 16 33 35 10 19 22 35 26 35 5
0 8 7 8 15 0 8 5 15 10 15 6 0 10 7 10 16 0 8 5 12 10 9 6 -3 10 1 10 9 0 9
18 34 40 56 22 22 40 45 40 50 0 6 7 10 16 10 8 0 13 4 10 8 -5 9 28 42 42 42
5 0 15 11 22 25 7 14 19 25 27 25 7 0 13 5 13 11 0 6 6 17 14 25 8 8 19 14 25
14 6 0 11 5 11 10 0 6 5 10 10 10 6 0 10 -4 10 -10z m2754 -226 c4 -10 1 -14
-6 -12 -15 5 -23 28 -10 28 5 0 13 -7 16 -16z m-24 -49 c0 -8 5 -15 10 -15 6
0 10 -11 10 -24 0 -19 -4 -23 -19 -19 -10 3 -22 0 -25 -6 -8 -13 29 -51 50
-51 25 0 41 -23 46 -66 3 -22 10 -49 16 -61 7 -12 12 -34 12 -49 l0 -28 -20
22 c-11 12 -20 30 -20 42 0 11 -7 20 -15 20 -8 0 -15 7 -15 15 0 8 -4 15 -10
15 -5 0 -12 11 -16 25 -3 14 -10 25 -15 25 -5 0 -9 11 -9 25 0 14 -4 25 -9 25
-5 0 -12 11 -15 25 -4 14 -11 25 -16 25 -6 0 -10 9 -10 20 0 11 6 20 14 20 7
0 19 7 26 15 7 8 16 15 21 15 5 0 9 -7 9 -15z m75 -26 c-4 -5 1 -9 9 -9 9 0
16 -5 16 -11 0 -6 7 -17 15 -25 14 -15 21 -64 10 -64 -3 0 -16 11 -29 25 -13
14 -33 25 -45 25 -24 0 -28 15 -6 24 8 3 15 17 15 31 0 15 4 24 10 20 6 -4 8
-11 5 -16z m-1448 -349 c2 -19 8 -36 13 -38 13 -5 13 -35 -1 -49 -8 -8 -6 -17
9 -33 18 -20 22 -20 44 -7 21 13 25 12 47 -10 l24 -23 -52 0 c-32 0 -58 -6
-67 -14 -18 -18 -18 -24 1 -43 11 -11 14 -26 10 -54 -5 -31 -3 -39 10 -39 8 0
15 -5 15 -11 0 -6 7 -17 15 -25 8 -9 15 -22 15 -29 0 -7 -7 -20 -15 -29 -8 -8
-15 -32 -15 -55 0 -42 -5 -47 -29 -32 -14 9 -18 22 -23 62 -1 10 -14 16 -37
18 -20 1 -39 8 -44 16 -4 8 -21 15 -37 15 -17 0 -30 5 -30 10 0 6 -13 10 -30
10 -25 0 -30 4 -30 25 0 16 -6 25 -15 25 -27 0 -18 56 15 90 17 17 30 37 30
45 0 10 11 15 35 15 24 0 35 -5 35 -15 0 -8 7 -15 15 -15 8 0 15 -4 15 -10 0
-5 11 -10 25 -10 18 0 25 5 25 20 0 11 7 23 15 26 8 4 15 10 15 16 0 12 -25
38 -37 38 -4 0 -13 8 -19 18 -8 13 -8 20 1 29 7 7 16 9 19 6 3 -4 6 10 6 30 0
21 -4 37 -10 37 -5 0 -10 7 -10 16 0 10 7 14 22 12 18 -2 23 -10 25 -38z
m-207 -1350 c0 -5 12 -10 26 -10 14 0 23 4 19 10 -3 6 1 10 9 10 14 0 16 -18
16 -125 0 -117 -1 -125 -19 -125 -11 0 -23 -9 -26 -20 -4 -11 -10 -18 -15 -15
-4 2 -10 -9 -14 -25 -5 -29 -7 -30 -66 -30 -33 0 -60 4 -60 10 0 6 -5 10 -11
10 -17 0 -39 27 -39 49 0 12 -4 21 -10 21 -5 0 -10 25 -10 55 0 30 5 55 10 55
6 0 10 19 10 43 0 44 6 52 60 81 29 16 120 21 120 6z m245 -631 c5 -5 17 -9
27 -9 10 0 18 -4 18 -9 0 -13 83 -23 109 -13 12 4 22 11 22 15 -3 24 1 26 19
15 16 -10 20 -24 20 -66 0 -31 -4 -51 -9 -47 -6 3 -13 -10 -17 -30 -4 -24 -12
-35 -24 -35 -11 0 -20 -10 -24 -25 -4 -14 -11 -25 -16 -25 -14 0 -12 -44 2
-58 9 -9 6 -16 -10 -30 -23 -20 -29 -42 -12 -42 6 0 10 -7 10 -15 0 -8 7 -15
15 -15 8 0 15 -4 15 -10 0 -5 9 -10 19 -10 11 0 23 -9 26 -20 3 -11 11 -20 16
-20 5 0 9 -4 9 -10 0 -13 37 -50 51 -50 5 0 8 -4 5 -9 -7 -11 42 -21 99 -21
46 0 58 -12 48 -49 -3 -14 -13 -21 -29 -21 -13 0 -24 -4 -24 -10 0 -5 -22 -10
-50 -10 -27 0 -50 -4 -50 -9 0 -5 -34 -12 -75 -16 -41 -4 -75 -11 -75 -16 0
-5 -38 -9 -85 -9 l-85 0 0 351 0 350 23 -6 c12 -4 26 -11 32 -16z"/>
<path d="M6280 7275 c0 -21 5 -25 30 -25 25 0 30 4 30 25 0 21 -5 25 -30 25
-25 0 -30 -4 -30 -25z"/>
<path d="M6856 7273 c-11 -11 -6 -23 9 -23 8 0 15 4 15 9 0 13 -16 22 -24 14z"/>
<path d="M6926 7235 c4 -8 12 -15 20 -15 8 0 14 7 14 15 0 8 -9 15 -20 15 -13
0 -18 -5 -14 -15z"/>
<path d="M7110 7189 c0 -6 -15 -9 -37 -7 -36 3 -38 2 -41 -29 -3 -28 0 -33 18
-33 12 0 18 -4 15 -10 -4 -6 10 -10 35 -10 25 0 39 4 35 10 -3 6 3 10 13 10
11 0 25 7 32 15 11 13 9 15 -13 15 -18 0 -26 7 -31 25 -6 25 -26 35 -26 14z"/>
<path d="M7487 6795 c-5 -29 -1 -85 6 -91 1 -1 16 -3 32 -4 63 -4 65 -3 65 45
0 56 -23 85 -66 85 -28 0 -32 -4 -37 -35z"/>
<path d="M7080 4985 c0 -8 7 -15 15 -15 8 0 15 7 15 15 0 8 -7 15 -15 15 -8 0
-15 -7 -15 -15z"/>
<path d="M6976 4941 c-3 -4 -19 -11 -36 -15 -33 -6 -60 -27 -60 -45 0 -7 40
-11 114 -11 105 0 114 -1 119 -20 6 -23 36 -38 46 -23 3 6 23 13 44 17 20 4
37 11 37 15 0 19 -39 41 -72 41 -20 0 -38 3 -40 8 -4 9 -107 42 -131 42 -9 0
-18 -4 -21 -9z"/>
<path d="M7210 4934 c0 -17 22 -14 28 4 2 7 -3 12 -12 12 -9 0 -16 -7 -16 -16z"/>
<path d="M7316 4891 c-3 -4 -19 -11 -36 -14 -22 -5 -28 -10 -23 -23 4 -10 -1
-22 -11 -30 -10 -7 -15 -17 -12 -22 7 -12 130 -5 134 8 2 6 11 10 21 10 9 0
25 10 35 21 15 18 15 23 5 30 -8 5 -20 9 -26 9 -7 0 -13 5 -13 10 0 12 -67 13
-74 1z"/>
<path d="M7490 4886 c0 -9 -7 -16 -15 -16 -8 0 -15 -4 -15 -10 0 -5 14 -10 31
-10 26 0 30 3 27 22 -4 25 -28 37 -28 14z"/>
<path d="M7107 4794 c-13 -14 6 -24 44 -24 28 0 39 4 39 15 0 11 -11 15 -38
15 -21 0 -42 -3 -45 -6z"/>
<path d="M110 5685 l0 -2095 379 0 c324 0 382 2 395 15 9 9 34 15 65 15 28 0
51 5 51 10 0 6 11 10 25 10 14 0 28 7 31 15 4 8 17 15 30 15 13 0 24 5 24 10
0 6 7 10 15 10 8 0 15 7 15 15 0 8 7 15 15 15 8 0 15 5 15 10 0 6 7 10 15 10
8 0 15 6 15 14 0 8 7 16 15 20 8 3 15 14 15 25 0 11 5 21 10 23 6 2 12 13 13
26 0 12 7 22 14 22 9 0 13 18 13 59 0 43 4 60 15 65 13 5 15 199 15 1666 0
1467 -2 1661 -15 1666 -11 5 -15 24 -15 80 0 54 -3 73 -12 71 -8 -1 -14 12
-16 36 -2 20 -7 37 -13 37 -5 0 -9 6 -9 14 0 18 -63 86 -79 86 -6 0 -11 7 -11
15 0 9 -9 15 -24 15 -13 0 -26 3 -28 8 -7 17 -69 42 -102 42 -20 0 -36 5 -36
10 0 6 -48 10 -124 10 -101 0 -125 3 -130 15 -5 13 -47 15 -296 15 l-290 0 0
-2095z"/>
<path d="M2492 7765 c-7 -8 -28 -15 -47 -15 -19 0 -37 -4 -40 -10 -3 -5 -14
-10 -25 -10 -10 0 -20 -7 -24 -15 -3 -8 -15 -15 -27 -15 -12 0 -36 -16 -55
-35 -18 -19 -37 -35 -43 -35 -6 0 -11 -11 -11 -25 0 -16 -6 -25 -15 -25 -10 0
-15 -10 -15 -29 0 -16 -6 -31 -12 -33 -10 -4 -14 -127 -16 -561 -2 -495 -1
-557 13 -557 9 0 15 -9 15 -25 0 -16 6 -25 15 -25 8 0 15 -9 15 -20 0 -11 7
-23 15 -26 8 -4 15 -12 15 -20 0 -8 4 -14 9 -14 5 0 13 -10 17 -22 3 -12 12
-28 18 -35 24 -27 32 -39 39 -55 3 -10 11 -18 17 -18 5 0 10 -9 10 -19 0 -10
7 -21 15 -25 8 -3 15 -15 15 -26 0 -11 5 -20 10 -20 6 0 10 -7 10 -15 0 -8 7
-15 15 -15 9 0 15 -9 15 -25 0 -16 6 -25 15 -25 9 0 15 -9 15 -25 0 -16 6 -25
15 -25 8 0 15 -9 15 -20 0 -11 5 -20 10 -20 6 0 10 -7 10 -15 0 -8 7 -15 15
-15 9 0 15 -9 15 -25 0 -16 6 -25 15 -25 8 0 15 -9 15 -20 0 -11 7 -23 15 -26
8 -4 15 -12 15 -20 0 -8 4 -14 9 -14 5 0 13 -10 17 -22 6 -20 13 -31 42 -63 6
-7 12 -19 12 -25 0 -6 7 -13 15 -16 8 -4 15 -15 15 -25 0 -10 7 -19 15 -19 9
0 15 -9 15 -25 0 -14 5 -25 10 -25 7 0 10 -235 10 -686 0 -581 -2 -688 -14
-700 -9 -8 -35 -14 -65 -14 l-51 0 0 736 c0 690 -1 738 -17 750 -14 10 -70 13
-234 14 l-217 0 -6 -26 c-4 -14 -6 -372 -6 -795 1 -658 4 -771 16 -776 10 -3
14 -21 14 -58 0 -34 5 -57 15 -65 8 -7 15 -23 15 -36 0 -15 6 -24 15 -24 9 0
15 -9 15 -25 0 -14 5 -25 10 -25 6 0 10 -6 10 -14 0 -18 63 -86 79 -86 6 0 11
-7 11 -15 0 -8 7 -15 15 -15 8 0 15 -4 15 -10 0 -5 11 -10 24 -10 13 0 26 -7
30 -15 3 -8 17 -15 31 -15 14 0 25 -4 25 -10 0 -6 67 -10 180 -10 99 0 180 4
180 9 0 5 23 11 52 13 29 3 54 11 56 17 2 6 15 11 28 11 13 0 24 5 24 10 0 6
7 10 15 10 9 0 18 7 21 15 4 8 10 15 16 15 13 0 38 26 38 39 0 6 7 11 15 11 8
0 15 7 15 15 0 8 4 15 9 15 5 0 13 10 17 22 3 12 13 28 20 36 8 7 14 28 14 47
0 18 6 35 13 37 9 4 12 193 12 900 l0 896 -27 26 c-16 14 -28 32 -28 41 0 9
-7 18 -15 21 -8 4 -15 14 -15 24 0 10 -7 20 -15 24 -8 3 -15 15 -15 26 0 11
-4 20 -10 20 -5 0 -10 7 -10 15 0 8 -7 15 -15 15 -9 0 -15 9 -15 25 0 16 -6
25 -15 25 -9 0 -15 9 -15 25 0 16 -6 25 -15 25 -8 0 -15 7 -15 15 0 8 -4 15
-9 15 -5 0 -13 10 -17 23 -4 12 -11 25 -16 28 -5 3 -10 13 -12 21 -1 8 -8 22
-16 31 -31 34 -40 47 -40 57 0 5 -4 10 -10 10 -5 0 -12 11 -16 25 -3 14 -10
25 -15 25 -5 0 -9 6 -9 14 0 8 -6 21 -14 28 -7 8 -17 24 -20 36 -4 12 -12 22
-17 22 -5 0 -9 7 -9 15 0 8 -7 15 -15 15 -9 0 -15 9 -15 25 0 14 -4 25 -9 25
-5 0 -13 10 -17 22 -8 26 -28 48 -43 48 -6 0 -11 11 -11 25 0 16 -6 25 -15 25
-9 0 -15 9 -15 25 0 16 -6 25 -15 25 -13 0 -15 46 -15 355 0 342 1 356 20 375
25 25 120 29 120 5 0 -8 5 -15 10 -15 6 0 10 -124 10 -352 0 -194 3 -363 6
-375 6 -23 7 -23 208 -23 190 0 203 1 219 20 16 18 17 59 17 465 0 290 -3 445
-10 445 -5 0 -10 16 -10 35 0 22 -6 38 -15 41 -8 4 -15 14 -15 23 0 17 -33 51
-50 51 -6 0 -10 7 -10 15 0 8 -7 15 -15 15 -8 0 -15 4 -15 9 0 5 -11 12 -25
15 -14 4 -25 11 -25 16 0 6 -13 10 -30 10 -16 0 -30 5 -30 10 0 6 -18 10 -40
10 -29 0 -40 4 -40 15 0 22 -378 22 -398 0z"/>
<path d="M1500 5670 l0 -2080 248 2 247 3 3 2078 2 2077 -250 0 -250 0 0
-2080z"/>
<path d="M3360 7000 c0 -491 3 -750 10 -750 7 0 11 -454 12 -1327 l3 -1328
225 0 225 0 3 1363 2 1362 90 0 90 0 2 -1362 3 -1363 223 -3 222 -2 0 2080 0
2080 -225 0 -225 0 0 -560 0 -560 -35 -1 c-19 0 -55 -1 -80 -1 -25 0 -49 1
-55 1 -7 1 -10 195 -10 561 l0 560 -240 0 -240 0 0 -750z"/>
<path d="M9110 5670 l0 -2080 198 2 197 3 3 488 c1 313 6 487 12 487 6 0 10
-41 10 -100 0 -82 3 -100 15 -100 12 0 15 -18 15 -100 0 -55 4 -100 9 -100 4
0 11 -44 13 -97 3 -59 10 -99 17 -101 7 -2 11 -37 11 -98 0 -75 3 -96 15 -100
12 -5 15 -25 15 -90 l0 -83 33 -6 c17 -3 131 -5 252 -3 l220 3 3 2078 2 2077
-200 0 -200 0 0 -940 c0 -620 -3 -940 -10 -940 -6 0 -10 41 -10 104 0 80 -4
108 -15 120 -11 11 -15 39 -15 110 0 79 -3 96 -15 96 -12 0 -15 19 -15 110 0
61 -4 110 -9 110 -4 0 -11 46 -13 102 -3 64 -9 103 -17 106 -7 2 -11 40 -11
113 0 90 -3 109 -15 109 -12 0 -15 18 -15 105 0 85 -3 107 -15 111 -12 5 -15
27 -15 109 0 57 -4 105 -9 107 -5 2 -12 50 -16 108 -4 58 -11 107 -16 108 -5
2 -9 37 -9 78 l0 74 -200 0 -200 0 0 -2080z"/>
<path d="M7137 2923 c-4 -3 -7 -102 -7 -220 l0 -213 65 -1 c241 -2 225 -5 225
41 l0 40 -99 0 -100 0 0 168 c-1 145 -3 169 -18 180 -18 13 -55 16 -66 5z"/>
<path d="M7617 2923 c-4 -3 -7 -102 -7 -220 l0 -213 39 0 c26 0 41 5 45 16 3
9 6 105 6 214 0 197 0 198 -22 204 -30 8 -53 8 -61 -1z"/>
<path d="M7966 2914 c-13 -13 -16 -46 -16 -204 0 -104 3 -195 6 -204 8 -22 80
-22 88 0 3 9 6 58 6 110 0 52 4 94 8 94 4 0 8 -10 9 -22 1 -11 7 -24 13 -28 6
-4 12 -15 14 -24 1 -10 7 -21 13 -24 6 -4 12 -16 14 -27 3 -16 13 -21 46 -23
39 -3 42 -1 48 28 4 16 10 28 15 25 5 -3 11 8 15 25 4 16 11 30 16 30 5 0 9
11 9 24 0 14 5 28 10 31 6 4 10 -31 10 -99 0 -122 4 -136 37 -136 50 0 53 13
53 229 l0 200 -36 7 c-31 6 -39 3 -60 -21 -13 -16 -24 -34 -24 -42 0 -7 -4
-13 -10 -13 -5 0 -12 -11 -16 -25 -3 -14 -10 -25 -15 -25 -5 0 -9 -11 -9 -25
0 -14 -7 -28 -15 -31 -8 -4 -15 -17 -15 -30 0 -32 -16 -31 -24 1 -4 14 -11 25
-16 25 -6 0 -10 9 -10 20 0 11 -4 20 -10 20 -5 0 -12 11 -16 25 -3 14 -10 25
-14 25 -4 0 -11 16 -14 35 -4 21 -13 35 -21 35 -8 0 -15 7 -15 15 0 20 -54 20
-74 -1z"/>
<path d="M8607 2923 c-4 -3 -7 -103 -7 -220 l0 -214 43 3 42 3 3 211 2 212
-22 6 c-30 8 -53 8 -61 -1z"/>
<path d="M8854 2916 c-3 -8 -4 -27 -2 -43 3 -27 6 -28 61 -31 l57 -3 0 -174 0
-175 39 0 c26 0 41 5 45 16 3 9 6 87 6 175 l0 159 54 0 c48 0 54 2 58 23 3 13
1 34 -3 45 -8 21 -14 22 -159 22 -121 0 -152 -3 -156 -14z"/>
<path d="M9340 2710 c0 -203 1 -220 18 -220 104 -3 253 -1 261 5 6 3 11 22 11
41 l0 34 -100 0 -100 0 0 45 c0 29 4 45 13 46 6 0 44 1 82 2 l70 2 0 40 0 40
-85 5 -85 5 0 40 0 40 100 5 100 5 0 40 0 40 -142 3 -143 3 0 -221z"/>
<path d="M9820 2919 c0 -5 -4 -8 -9 -5 -17 11 -21 -27 -21 -215 0 -156 2 -189
14 -189 8 0 16 -5 18 -11 5 -14 187 -14 201 0 6 6 21 11 34 11 14 0 23 6 23
15 0 8 5 14 12 13 7 -2 15 11 19 27 4 17 7 23 8 15 1 -13 2 -13 11 0 5 8 10
70 10 138 0 102 -2 122 -15 122 -8 0 -15 9 -15 20 0 11 -7 20 -15 20 -8 0 -15
5 -15 10 0 6 -12 10 -26 10 -14 0 -23 4 -20 9 9 14 -32 21 -126 21 -56 0 -88
-4 -88 -11z"/>
</g>
</svg>
